<svg xmlns="http://www.w3.org/2000/svg" version="1.1" xmlns:xlink="http://www.w3.org/1999/xlink" width="512" height="512" x="0" y="0" viewBox="0 0 512.004 512.004" style="enable-background:new 0 0 512 512" xml:space="preserve" class=""><g><path fill="#78d5dd" d="m434.802 301.593-110.16-114.23-102.47-106.27s-55.91 118.44-89.06 130.46l-51.92 110.03-.18.39-.22.47c-4.29 9.45-41.67 93.91-21.93 130.7 8.57 15.97 27.91 22.96 65.4 10.91l72.29-32.7s65.47-63.2 109.94-49.73l123.69-55.95c4.44-2.01 7.63-6.06 8.55-10.85s-.55-9.72-3.93-13.23z" opacity="1" data-original="#78d5dd"></path><path fill="#63afc9" d="M438.732 314.823c-.92 4.79-4.11 8.84-8.55 10.85l-123.69 55.95c-44.47-13.47-109.94 49.73-109.94 49.73l-72.29 32.7c-37.49 12.05-56.83 5.06-65.4-10.91l265.78-265.78 110.16 114.23c3.38 3.51 4.85 8.44 3.93 13.23z" opacity="1" data-original="#63afc9" class=""></path><path fill="#edffff" d="m106.552 405.453-25.36-83.87-79.76 169.02a15.004 15.004 0 0 0 2.88 16.92c.03.03.06.06.09.08 2.87 2.88 6.71 4.4 10.6 4.4 2.09 0 4.2-.44 6.18-1.33l103.08-46.62z" opacity="1" data-original="#edffff"></path><path fill="#e0f2fe" d="m124.262 464.053-103.08 46.62c-1.98.89-4.09 1.33-6.18 1.33-3.89 0-7.73-1.52-10.6-4.4l102.15-102.15z" opacity="1" data-original="#e0f2fe"></path><path fill="#edffff" d="m267.902 244.103-45.73-163.01-3.37-3.5a15.004 15.004 0 0 0-24.37 4.01l-61.32 129.95 37.48 129.86 25.96 89.94 109.94-49.73z" opacity="1" data-original="#edffff"></path><path fill="#e0f2fe" d="m306.492 381.623-109.94 49.73-25.96-89.94 97.31-97.31z" opacity="1" data-original="#e0f2fe"></path><path fill="#9b79db" d="M408.014 223.007c-5.503 0-10.8-3.039-13.428-8.295-3.705-7.41-.702-16.419 6.708-20.125l5.508-2.754c31.161-15.582 67.712-14.374 97.778 3.225 7.149 4.185 9.552 13.374 5.367 20.523-4.186 7.151-13.374 9.551-20.523 5.368-21.279-12.457-47.15-13.311-69.206-2.283l-5.508 2.754a14.932 14.932 0 0 1-6.696 1.587z" opacity="1" data-original="#9b79db" class=""></path><path fill="#ffd322" d="M472.021 143.003c-8.284 0-15.005-6.716-15.005-15s6.711-15 14.995-15h.01c8.285 0 15 6.716 15 15s-6.714 15-15 15z" opacity="1" data-original="#ffd322"></path><path fill="#f27bb5" d="M383.022 144.003c0 8.28-6.72 15-15 15-4.14 0-7.89-1.68-10.61-4.4v-.01c-2.72-2.71-4.4-6.45-4.4-10.59 0-8.28 6.72-15 15-15h.01c4.14 0 7.88 1.68 10.59 4.39 2.73 2.71 4.41 6.47 4.41 10.61z" opacity="1" data-original="#f27bb5"></path><path fill="#ec3c93" d="M383.022 144.003c0 8.28-6.72 15-15 15-4.14 0-7.89-1.68-10.61-4.4v-.01l21.2-21.2c2.73 2.71 4.41 6.47 4.41 10.61z" opacity="1" data-original="#ec3c93"></path><path fill="#ffe377" d="M303.99 119.007c-2.254 0-4.543-.51-6.696-1.587-7.41-3.705-10.413-12.715-6.708-20.125l2.754-5.508c11.027-22.055 10.174-47.926-2.283-69.207-4.185-7.149-1.782-16.338 5.367-20.523 7.148-4.185 16.338-1.783 20.523 5.368 17.6 30.066 18.806 66.619 3.225 97.778l-2.754 5.507c-2.628 5.258-7.926 8.297-13.428 8.297z" opacity="1" data-original="#ffe377"></path><path fill="#ffe3c1" d="M384.021 55.003c-8.284 0-15.005-6.716-15.005-15s6.711-15 14.995-15h.01c8.285 0 15 6.716 15 15s-6.714 15-15 15z" opacity="1" data-original="#ffe3c1"></path><path fill="#f27bb5" d="M512.002 15.003v1c0 25.92-21.08 47-47 47h-1c-9.37 0-17 7.63-17 17 0 8.28-6.72 15-15 15-4.14 0-7.89-1.68-10.6-4.4-2.72-2.71-4.4-6.46-4.4-10.6 0-25.92 21.08-47 47-47h1c9.37 0 17-7.63 17-17v-1c0-8.28 6.72-15 15-15 4.14 0 7.89 1.68 10.6 4.4 2.72 2.71 4.4 6.46 4.4 10.6z" opacity="1" data-original="#f27bb5"></path><path fill="#ec3c93" d="M512.002 15.003v1c0 25.92-21.08 47-47 47h-1c-9.37 0-17 7.63-17 17 0 8.28-6.72 15-15 15-4.14 0-7.89-1.68-10.6-4.4l86.2-86.2c2.72 2.71 4.4 6.46 4.4 10.6z" opacity="1" data-original="#ec3c93"></path></g></svg>