<svg xmlns="http://www.w3.org/2000/svg" version="1.1" xmlns:xlink="http://www.w3.org/1999/xlink" width="512" height="512" x="0" y="0" viewBox="0 0 30.05 30.05" style="enable-background:new 0 0 512 512" xml:space="preserve" class=""><g><path d="M18.993 10.688h-7.936a.342.342 0 0 0-.346.342v8.022c0 .189.155.344.346.344h7.936c.19 0 .344-.154.344-.344V11.03a.342.342 0 0 0-.344-.342z" style="" fill="#fff" data-original="#fff" class=""></path><path d="M15.026 0C6.729 0 .001 6.726.001 15.025S6.729 30.05 15.026 30.05c8.298 0 15.023-6.726 15.023-15.025S23.324 0 15.026 0zm0 27.54c-6.912 0-12.516-5.604-12.516-12.515 0-6.914 5.604-12.517 12.516-12.517 6.913 0 12.514 5.603 12.514 12.517 0 6.911-5.601 12.515-12.514 12.515z" style="" fill="#fff" data-original="#fff" class=""></path></g></svg>